<svg width="40" height="40" viewBox="0 0 40 40" fill="none" xmlns="http://www.w3.org/2000/svg">
<path d="M20.0002 26.9586C19.7239 26.9586 19.4589 27.0684 19.2636 27.2637C19.0682 27.4591 18.9585 27.724 18.9585 28.0003C18.9585 28.2766 19.0682 28.5415 19.2636 28.7369C19.4589 28.9322 19.7239 29.042 20.0002 29.042C20.2764 29.042 20.5414 28.9322 20.7367 28.7369C20.9321 28.5415 21.0418 28.2766 21.0418 28.0003C21.0418 27.724 20.9321 27.4591 20.7367 27.2637C20.5414 27.0684 20.2764 26.9586 20.0002 26.9586ZM20.0002 24.667C20.2212 24.667 20.4331 24.5792 20.5894 24.4229C20.7457 24.2666 20.8335 24.0546 20.8335 23.8336V11.167C20.8335 10.9459 20.7457 10.734 20.5894 10.5777C20.4331 10.4214 20.2212 10.3336 20.0002 10.3336C19.7791 10.3336 19.5672 10.4214 19.4109 10.5777C19.2546 10.734 19.1668 10.9459 19.1668 11.167V23.8336C19.1668 24.0546 19.2546 24.2666 19.4109 24.4229C19.5672 24.5792 19.7791 24.667 20.0002 24.667ZM20.0002 3.33362C10.7952 3.33362 3.3335 10.7953 3.3335 20.0003C3.3335 29.2053 10.7952 36.667 20.0002 36.667C29.2002 36.657 36.6568 29.2003 36.6668 20.0003C36.6668 10.7953 29.2052 3.33362 20.0002 3.33362ZM20.0002 35.0003C18.0303 35.0003 16.0798 34.6123 14.2599 33.8585C12.44 33.1047 10.7864 31.9998 9.39356 30.6069C8.00068 29.214 6.89579 27.5604 6.14197 25.7405C5.38815 23.9207 5.00016 21.9701 5.00016 20.0003C5.00016 18.0305 5.38815 16.0799 6.14197 14.26C6.89579 12.4401 8.00068 10.7866 9.39356 9.39368C10.7864 8.0008 12.44 6.89591 14.2599 6.14209C16.0798 5.38827 18.0303 5.00028 20.0002 5.00028C23.9771 5.0047 27.7898 6.58647 30.6019 9.39856C33.414 12.2106 34.9958 16.0234 35.0002 20.0003C35.0002 23.9785 33.4198 27.7938 30.6068 30.6069C27.7937 33.4199 23.9784 35.0003 20.0002 35.0003Z" fill="white"/>
</svg>
