<svg width="25" height="24" viewBox="0 0 25 24" fill="none" xmlns="http://www.w3.org/2000/svg">
<g clip-path="url(#clip0_290_15870)">
<path d="M17.6764 1.64722H7.32344C4.46456 1.64722 2.14697 3.9648 2.14697 6.82369V17.1766C2.14697 20.0355 4.46456 22.3531 7.32344 22.3531H17.6764C20.5353 22.3531 22.8529 20.0355 22.8529 17.1766V6.82369C22.8529 3.9648 20.5353 1.64722 17.6764 1.64722Z" stroke="#FFE711" stroke-width="1.5" stroke-linecap="round" stroke-linejoin="round"/>
<path d="M12.5 15.8826C14.6442 15.8826 16.3824 14.1444 16.3824 12.0003C16.3824 9.85611 14.6442 8.11792 12.5 8.11792C10.3559 8.11792 8.61768 9.85611 8.61768 12.0003C8.61768 14.1444 10.3559 15.8826 12.5 15.8826Z" stroke="#FFE711" stroke-width="1.5" stroke-linecap="round" stroke-linejoin="round"/>
<path d="M18.3235 6.17676V6.17776" stroke="#FFE711" stroke-width="1.5" stroke-linecap="round" stroke-linejoin="round"/>
</g>
<defs>
<clipPath id="clip0_290_15870">
<rect width="24" height="24" fill="white" transform="translate(0.5 0.000244141)"/>
</clipPath>
</defs>
</svg>
