<svg width="24" height="24" viewBox="0 0 24 24" fill="none" xmlns="http://www.w3.org/2000/svg">
<path d="M4 8.27083V4.85417C4 4.62763 4.09153 4.41037 4.25446 4.25018C4.41739 4.08999 4.63838 4 4.86879 4H8.34397" stroke="white" stroke-width="1.5" stroke-linecap="round" stroke-linejoin="round"/>
<path d="M15.2942 4H18.7694C18.9998 4 19.2208 4.08999 19.3837 4.25018C19.5466 4.41037 19.6382 4.62763 19.6382 4.85417V8.27083" stroke="white" stroke-width="1.5" stroke-linecap="round" stroke-linejoin="round"/>
<path d="M8.34397 19.3753H4.86879C4.63838 19.3753 4.41739 19.2853 4.25446 19.1251C4.09153 18.965 4 18.7477 4 18.5212V15.1045" stroke="white" stroke-width="1.5" stroke-linecap="round" stroke-linejoin="round"/>
<path d="M19.6382 15.1045V18.5212C19.6382 18.7477 19.5466 18.965 19.3837 19.1251C19.2208 19.2853 18.9998 19.3753 18.7694 19.3753H15.2942" stroke="white" stroke-width="1.5" stroke-linecap="round" stroke-linejoin="round"/>
<path d="M19.3863 19.1276L14.4255 14.2503M9.21277 9.12534L4.25195 4.24805L9.21277 9.12534ZM14.4255 9.12534L19.3863 4.24805L14.4255 9.12534ZM9.21277 14.2503L4.25195 19.1276L9.21277 14.2503Z" stroke="white" stroke-width="1.5" stroke-linecap="round" stroke-linejoin="round"/>
</svg>
