<svg width="24" height="24" viewBox="0 0 24 24" fill="none" xmlns="http://www.w3.org/2000/svg">
<path d="M8.93463 10.6503L14.686 7.77662M6.60626 9.2091C7.12175 9.2091 7.62567 9.36186 8.05429 9.64805C8.48291 9.93423 8.81697 10.341 9.01424 10.8169C9.21152 11.2928 9.26313 11.8165 9.16256 12.3217C9.06199 12.827 8.81376 13.2911 8.44925 13.6553C8.08474 14.0195 7.62033 14.2676 7.11474 14.3681C6.60915 14.4686 6.0851 14.417 5.60884 14.2199C5.13259 14.0228 4.72553 13.6889 4.43913 13.2606C4.15274 12.8323 3.99988 12.3288 3.99988 11.8136C3.99988 11.1229 4.27448 10.4604 4.76327 9.97195C5.25206 9.48351 5.915 9.2091 6.60626 9.2091V9.2091ZM14.4254 17.0227C14.4254 17.5378 14.5783 18.0413 14.8647 18.4697C15.1511 18.898 15.5581 19.2318 16.0344 19.4289C16.5106 19.6261 17.0347 19.6776 17.5403 19.5771C18.0459 19.4766 18.5103 19.2286 18.8748 18.8643C19.2393 18.5001 19.4875 18.036 19.5881 17.5308C19.6887 17.0256 19.637 16.5019 19.4398 16.026C19.2425 15.55 18.9084 15.1433 18.4798 14.8571C18.0512 14.5709 17.5473 14.4181 17.0318 14.4181C16.3405 14.4181 15.6776 14.6925 15.1888 15.181C14.7 15.6694 14.4254 16.3319 14.4254 17.0227ZM8.93463 12.977L14.686 15.8506L8.93463 12.977ZM17.0318 9.2091C17.5473 9.2091 18.0512 9.05635 18.4798 8.77016C18.9084 8.48397 19.2425 8.0772 19.4398 7.60129C19.637 7.12538 19.6887 6.60169 19.5881 6.09647C19.4875 5.59124 19.2393 5.12716 18.8748 4.76291C18.5103 4.39866 18.0459 4.1506 17.5403 4.05011C17.0347 3.94961 16.5106 4.00119 16.0344 4.19832C15.5581 4.39545 15.1511 4.72928 14.8647 5.15759C14.5783 5.5859 14.4254 6.08946 14.4254 6.60458C14.4254 7.29535 14.7 7.95782 15.1888 8.44626C15.6776 8.9347 16.3405 9.2091 17.0318 9.2091Z" stroke="white" stroke-width="1.5" stroke-linecap="round" stroke-linejoin="round"/>
</svg>
