<svg width="90" height="90" viewBox="0 0 90 90" fill="none" xmlns="http://www.w3.org/2000/svg">
<path d="M45.5 13C39.0721 13 32.7886 14.9061 27.444 18.4772C22.0994 22.0484 17.9338 27.1242 15.4739 33.0628C13.0141 39.0014 12.3705 45.536 13.6245 51.8404C14.8785 58.1448 17.9738 63.9357 22.519 68.481C27.0642 73.0262 32.8552 76.1215 39.1596 77.3755C45.464 78.6295 51.9986 77.9859 57.9372 75.5261C63.8758 73.0662 68.9516 68.9006 72.5228 63.556C76.0939 58.2114 78 51.9279 78 45.5C78 36.8805 74.5759 28.614 68.481 22.519C62.386 16.4241 54.1195 13 45.5 13Z" stroke="white" stroke-width="1.5" stroke-linecap="round" stroke-linejoin="round"/>
<path d="M39 58.5V32.5L58.5 45.5L39 58.5Z" fill="#FFE711" stroke="#FFE711" stroke-width="1.48936" stroke-linejoin="round"/>
</svg>
